<svg width="20" height="18" viewBox="0 0 20 18" fill="none" xmlns="http://www.w3.org/2000/svg">
<path d="M4.34952 0.753723C4.80327 0.753723 5.61727 0.893973 5.61727 2.01116C5.61727 3.12835 4.81152 3.55804 4.34952 3.55804C3.88752 3.55804 3.17871 3.11941 3.17871 2.01116C3.17871 0.902223 3.95765 0.753723 4.34952 0.753723ZM1.85734 2.15622C2.31109 2.15622 3.12509 2.29579 3.12509 3.41297C3.12509 4.53016 2.31934 4.95985 1.85734 4.95985C1.39534 4.95985 0.686523 4.52191 0.686523 3.41297C0.686523 2.30472 1.46546 2.15622 1.85734 2.15622ZM8.62509 2.01116C8.62509 0.893973 7.81109 0.754411 7.35734 0.754411C6.96546 0.754411 6.18652 0.902223 6.18652 2.01116C6.18652 3.11941 6.89534 3.55804 7.35734 3.55804C7.81934 3.55804 8.62509 3.12835 8.62509 2.01116ZM9.7959 2.15622C10.2496 2.15622 11.0636 2.29579 11.0636 3.41297C11.0636 4.53016 10.2579 4.95985 9.7959 4.95985C9.3339 4.95985 8.62509 4.52191 8.62509 3.41297C8.62509 2.30472 9.40402 2.15622 9.7959 2.15622ZM9.30159 7.63491C9.30159 5.62604 8.00221 3.88597 5.87509 3.88597C3.74796 3.88597 2.4699 5.58272 2.4699 7.63491C2.4699 9.34266 4.50559 9.34266 5.87027 9.34266H5.87509C7.38965 9.34266 9.30159 9.28904 9.30159 7.63491ZM10.1073 10.4385C10.5611 10.4385 11.3751 10.5781 11.3751 11.6953C11.3751 12.8125 10.5693 13.2422 10.1073 13.2422C9.64534 13.2422 8.93652 12.8035 8.93652 11.6953C8.93652 10.5863 9.71546 10.4385 10.1073 10.4385ZM13.8673 10.2935C13.8673 9.17629 13.0533 9.03672 12.5995 9.03672C12.2076 9.03672 11.4287 9.18454 11.4287 10.2935C11.4287 11.4017 12.1375 11.8403 12.5995 11.8403C13.0615 11.8403 13.8673 11.4107 13.8673 10.2935ZM15.6073 9.03672C16.0611 9.03672 16.8751 9.17629 16.8751 10.2935C16.8751 11.4107 16.0693 11.8403 15.6073 11.8403C15.1453 11.8403 14.4365 11.4017 14.4365 10.2935C14.4365 9.18454 15.2155 9.03672 15.6073 9.03672ZM19.3136 11.6953C19.3136 10.5781 18.4996 10.4385 18.0459 10.4385C17.654 10.4385 16.8751 10.5863 16.8751 11.6953C16.8751 12.8035 17.5839 13.2422 18.0459 13.2422C18.5079 13.2422 19.3136 12.8125 19.3136 11.6953ZM14.1251 12.1683C16.2522 12.1683 17.5516 13.9077 17.5516 15.9172C17.5516 17.5713 15.6403 17.625 14.1251 17.625H14.1196C12.7556 17.625 10.7199 17.625 10.7199 15.9172C10.7199 13.865 11.9986 12.1683 14.1251 12.1683Z" fill="white"/>
</svg>
